<mxfile host="app.diagrams.net" agent="Mozilla/5.0 (Windows NT 10.0; Win64; x64) AppleWebKit/537.36 (KHTML, like Gecko) Chrome/139.0.0.0 Safari/537.36" version="28.1.0">
  <diagram name="페이지-1" id="ugINaek9N0ucWnnniNOr">
    <mxGraphModel dx="868" dy="468" grid="1" gridSize="10" guides="1" tooltips="1" connect="1" arrows="1" fold="1" page="1" pageScale="1" pageWidth="827" pageHeight="1169" math="0" shadow="0">
      <root>
        <mxCell id="0" />
        <mxCell id="1" parent="0" />
        <mxCell id="bJlPFWiFIu-DP58-X84_-1" value="채팅방 생성하기" style="rounded=0;whiteSpace=wrap;html=1;align=left;labelPosition=center;verticalLabelPosition=middle;verticalAlign=top;" vertex="1" parent="1">
          <mxGeometry x="223" y="415" width="381" height="340" as="geometry" />
        </mxCell>
        <mxCell id="bJlPFWiFIu-DP58-X84_-29" value="Client" style="shape=umlLifeline;perimeter=lifelinePerimeter;whiteSpace=wrap;html=1;container=1;dropTarget=0;collapsible=0;recursiveResize=0;outlineConnect=0;portConstraint=eastwest;newEdgeStyle={&quot;curved&quot;:0,&quot;rounded&quot;:0};" vertex="1" parent="1">
          <mxGeometry x="264" y="475" width="100" height="250" as="geometry" />
        </mxCell>
        <mxCell id="bJlPFWiFIu-DP58-X84_-31" value="" style="html=1;points=[[0,0,0,0,5],[0,1,0,0,-5],[1,0,0,0,5],[1,1,0,0,-5]];perimeter=orthogonalPerimeter;outlineConnect=0;targetShapes=umlLifeline;portConstraint=eastwest;newEdgeStyle={&quot;curved&quot;:0,&quot;rounded&quot;:0};" vertex="1" parent="bJlPFWiFIu-DP58-X84_-29">
          <mxGeometry x="45" y="80" width="10" height="40" as="geometry" />
        </mxCell>
        <mxCell id="bJlPFWiFIu-DP58-X84_-32" value="내부 저장소에&lt;div&gt;Room, Key 생성&lt;/div&gt;" style="html=1;align=left;spacingLeft=2;endArrow=block;rounded=0;edgeStyle=orthogonalEdgeStyle;curved=0;rounded=0;" edge="1" target="bJlPFWiFIu-DP58-X84_-31" parent="bJlPFWiFIu-DP58-X84_-29">
          <mxGeometry relative="1" as="geometry">
            <mxPoint x="50" y="60" as="sourcePoint" />
            <Array as="points">
              <mxPoint x="80" y="90" />
            </Array>
          </mxGeometry>
        </mxCell>
        <mxCell id="bJlPFWiFIu-DP58-X84_-30" value="Server" style="shape=umlLifeline;perimeter=lifelinePerimeter;whiteSpace=wrap;html=1;container=1;dropTarget=0;collapsible=0;recursiveResize=0;outlineConnect=0;portConstraint=eastwest;newEdgeStyle={&quot;curved&quot;:0,&quot;rounded&quot;:0};" vertex="1" parent="1">
          <mxGeometry x="468" y="475" width="100" height="250" as="geometry" />
        </mxCell>
        <mxCell id="bJlPFWiFIu-DP58-X84_-33" value="Room 생성 요청" style="html=1;verticalAlign=bottom;endArrow=block;curved=0;rounded=0;" edge="1" parent="1" target="bJlPFWiFIu-DP58-X84_-30">
          <mxGeometry width="80" relative="1" as="geometry">
            <mxPoint x="314" y="605" as="sourcePoint" />
            <mxPoint x="394" y="605" as="targetPoint" />
          </mxGeometry>
        </mxCell>
        <mxCell id="bJlPFWiFIu-DP58-X84_-34" value="Room ID return" style="html=1;verticalAlign=bottom;endArrow=open;dashed=1;endSize=8;curved=0;rounded=0;" edge="1" parent="1" target="bJlPFWiFIu-DP58-X84_-29">
          <mxGeometry relative="1" as="geometry">
            <mxPoint x="518" y="635" as="sourcePoint" />
            <mxPoint x="438" y="635" as="targetPoint" />
          </mxGeometry>
        </mxCell>
        <mxCell id="bJlPFWiFIu-DP58-X84_-35" value="Room의 First chat을 생성하여 서명" style="html=1;verticalAlign=bottom;endArrow=block;curved=0;rounded=0;" edge="1" parent="1">
          <mxGeometry width="80" relative="1" as="geometry">
            <mxPoint x="314" y="665" as="sourcePoint" />
            <mxPoint x="518" y="665" as="targetPoint" />
          </mxGeometry>
        </mxCell>
        <mxCell id="bJlPFWiFIu-DP58-X84_-37" value="First chat을 성공응답으로 반환" style="html=1;verticalAlign=bottom;endArrow=open;dashed=1;endSize=8;curved=0;rounded=0;" edge="1" parent="1">
          <mxGeometry relative="1" as="geometry">
            <mxPoint x="518" y="695" as="sourcePoint" />
            <mxPoint x="314" y="695" as="targetPoint" />
          </mxGeometry>
        </mxCell>
      </root>
    </mxGraphModel>
  </diagram>
</mxfile>
